<?xml version="1.0" encoding="utf-8"?>
<svg xmlns="http://www.w3.org/2000/svg" viewBox="-1.996 -19.294 502.661 519.294">
  <path d="M 499.221 292.894 L 499.221 310.434 C 496.299 320.373 490.842 328.654 482.657 335.281 L 351.115 438.565 C 339.52 444.802 327.145 448.699 314.088 450.259 L 149.417 451.232 C 144.935 452.109 140.648 453.669 136.751 456.104 L 75.364 495.08 C 67.081 499.367 60.163 497.905 54.415 490.694 L 0.336 419.565 L 0.336 410.795 C 3.649 406.021 7.546 401.636 12.029 397.641 L 111.416 307.024 C 146.203 281.397 183.52 276.817 223.471 293.382 C 235.846 300.495 248.804 306.05 262.445 309.947 C 283.2 310.629 304.053 310.629 324.807 309.947 C 332.894 302.931 341.371 296.5 350.141 290.459 C 368.069 282.567 384.244 285.002 398.86 297.766 C 412.014 287.731 424.974 277.499 437.836 267.073 C 459.954 256.355 478.662 260.739 493.863 280.228 C 496.105 284.417 497.857 288.607 499.221 292.894 Z M 457.323 287.049 C 471.354 288.509 476.032 296.013 471.452 309.459 L 340.397 414.206 C 332.115 418.785 323.345 422.098 314.088 423.95 L 142.596 425.898 C 135.678 427.457 129.15 429.991 123.109 433.694 L 70.004 467.309 L 31.517 417.129 L 127.98 327.485 C 152.047 309.459 178.357 305.269 206.906 314.818 C 218.405 320.081 229.804 325.634 241.009 331.383 C 247.635 333.722 254.456 335.378 261.472 336.254 L 327.73 337.229 C 336.207 340.834 338.644 346.778 335.038 355.255 C 332.602 358.958 329.191 361.102 324.807 361.589 L 170.853 371.332 C 163.155 375.717 161.013 382.051 164.52 390.333 C 166.371 392.477 168.418 394.23 170.853 395.693 C 224.834 393.646 278.718 390.723 332.602 386.923 C 346.049 383.805 355.304 375.912 360.372 363.05 L 447.579 292.408 C 450.502 289.777 453.718 288.022 457.323 287.049 Z M 368.653 311.408 C 371.967 311.701 374.89 312.869 377.423 314.818 L 359.885 329.434 C 359.203 330.117 358.617 330.117 357.935 329.434 C 356.182 326.901 354.233 324.465 352.09 322.126 C 356.864 317.254 362.419 313.747 368.653 311.408 Z" style="stroke-width: 1; fill: white;" fill-rule="evenodd"/>
  <g id="svg" transform="matrix(0.902031, 0, 0, 0.902031, -545.182076, -44.14119)" style="">
    <path d="M 823.135 46.679 C 855.068 52.842 880.495 72.104 891.696 98.619 C 893.206 102.194 894.739 105.033 895.101 104.927 C 895.463 104.822 897.8 101.222 900.293 96.927 C 903.363 91.64 907.932 86.048 914.443 79.608 C 922.521 71.619 925.58 69.343 933.56 65.386 C 944.469 59.977 950.605 58.214 964.616 56.465 C 972.521 55.479 975.599 55.474 979.336 56.441 C 985.172 57.952 989.509 62.329 989.684 66.885 C 990.571 90.013 979.988 116.602 962.969 134.002 C 952.828 144.371 940.589 150.88 925.289 154.04 C 921.085 154.908 915.405 155.619 912.667 155.619 C 909.93 155.619 906.536 156.058 905.125 156.594 L 902.56 157.569 L 902.56 184.035 C 902.56 198.591 902.905 210.714 903.326 210.974 C 903.747 211.235 908.81 209.256 914.576 206.578 C 928.201 200.25 934.906 198.561 946.56 198.524 C 963.541 198.469 973.462 202.633 997.431 219.871 C 1015.15 232.616 1021.21 235.788 1038.85 241.548 C 1065.77 250.342 1071.88 257.031 1082.54 289.368 C 1088.84 308.464 1091.12 319.539 1090.13 326.119 C 1089.08 333.045 1083.03 338.965 1075.38 340.549 C 1071.59 341.334 1017.69 341.575 888.06 341.385 L 706.06 341.119 L 701.06 338.619 C 697.233 336.705 695.532 335.073 693.81 331.657 C 689.744 323.594 691.219 313.945 701.23 283.119 C 709.855 256.558 713.667 251.97 736.703 240.419 C 745.149 236.184 759.71 227.893 769.06 221.994 C 778.41 216.095 788.76 210.053 792.06 208.565 C 800.96 204.555 811.616 202.478 823.205 202.495 C 834.386 202.512 839.046 203.495 857.717 209.781 C 866.649 212.787 871.8 213.961 876.356 214.027 L 882.652 214.119 L 882.577 185.227 C 882.536 169.337 882.264 155.949 881.972 155.477 C 881.681 155.005 880.177 154.619 878.632 154.619 C 873.368 154.619 858.188 151.547 850.614 148.95 C 830.615 142.09 810.789 127.987 800.861 113.557 C 785.386 91.064 778.438 62.571 785.569 50.845 C 789.378 44.58 803.909 42.969 823.135 46.679 M 804.14 66.49 C 803.186 68.033 806.505 78.896 810.443 87.119 C 821.864 110.968 843.496 126.925 870.818 131.657 C 880.655 133.36 880.772 133.243 878.407 124.014 C 870.92 94.786 849.508 74.097 819.56 67.155 C 812.321 65.477 804.962 65.16 804.14 66.49 M 963.56 76.306 C 954.48 77.81 941.494 83.541 933.631 89.514 C 927.801 93.943 917.925 106.345 913.582 114.694 C 909.037 123.43 905.394 133.119 906.309 134.035 C 907.395 135.12 917.021 134.599 923.32 133.113 C 943.477 128.361 957.814 113.075 966.093 87.509 C 968.629 79.677 968.902 75.396 966.841 75.755 C 966.412 75.83 964.935 76.078 963.56 76.306 M 936.893 219.602 C 934.601 220.088 927.57 222.773 921.269 225.569 C 906.812 231.982 895.389 234.574 881.56 234.58 C 869.29 234.585 862.535 233.3 844.949 227.615 C 828.166 222.191 818.832 221.398 808.951 224.559 C 800.668 227.208 795.289 230.133 777.56 241.628 C 770.135 246.443 756.798 254.012 747.922 258.45 C 738.514 263.154 730.924 267.612 729.722 269.14 C 728.588 270.582 725.986 276.083 723.939 281.364 C 719.611 292.534 712.403 317.556 713.16 318.781 C 713.886 319.955 1068.29 319.865 1069.02 318.691 C 1070.53 316.239 1055.72 274.85 1051.69 270.263 C 1049.21 267.439 1043.39 264.787 1032.69 261.61 C 1019.25 257.616 1007.35 252.351 999.077 246.729 C 995.217 244.108 986.21 237.964 979.06 233.076 C 971.617 227.988 963.303 223.189 959.609 221.848 C 952.323 219.203 943.076 218.289 936.893 219.602 M 846.945 262.112 C 856.972 264.237 862.479 267.18 864.22 271.348 C 866.03 275.679 864.638 280.626 860.749 283.685 C 857.732 286.058 855.73 285.996 841.124 283.078 C 833.442 281.543 830.728 281.444 821.782 282.372 C 814.628 283.114 810.458 283.131 808.438 282.427 C 805.247 281.314 802.56 277.143 802.56 273.304 C 802.56 270.27 806.006 265.806 809.441 264.39 C 818.539 260.639 835.21 259.626 846.945 262.112 M 985.549 273.371 C 989.816 275.509 991.281 279.126 989.993 284.341 C 988.377 290.885 985.544 291.616 961.778 291.617 C 940.217 291.619 935.832 290.864 933.64 286.769 C 931.059 281.946 933.131 274.32 937.454 272.733 C 938.888 272.207 949.51 271.742 961.06 271.7 C 979.158 271.633 982.542 271.864 985.549 273.371" stroke="none" fill-rule="evenodd" style="stroke-width: 1; fill: white;"/>
  </g>
</svg>